<svg width="405" height="194" viewBox="0 0 405 194" fill="none" xmlns="http://www.w3.org/2000/svg">
<path d="M23.0248 0L16.5227 19.0627L10.1488 0H0.56665V29.7908H7.28272V9.74505L13.3571 27.0981H19.8165L25.8909 9.65956V29.7908H32.607V0H23.0248Z" fill="#6D9FCF"/>
<path d="M38.6654 29.7908H45.3814V0H38.6654V29.7908Z" fill="#6D9FCF"/>
<path d="M69.5434 0V18.1651L58.2929 0H51.4485V29.7908H58.1646V11.5402L69.3723 29.7908H76.2595V0H69.5434Z" fill="#6D9FCF"/>
<path d="M82.3202 29.7908H89.0362V0H82.3202V29.7908Z" fill="#6D9FCF"/>
<path d="M62.5606 37.9116L44.4478 91.0584L26.6925 37.9116H0V120.968H18.7086V65.0808L35.6298 113.461H53.6234L70.5446 64.8425V120.968H89.2532V37.9116H62.5606Z" fill="#6D9FCF"/>
<path d="M158.204 120.968H178.581L144.143 37.9116H130.439L95.8816 120.968H116.258L121.621 106.907H152.842L158.204 120.968ZM128.175 89.7476L137.35 65.7958L146.407 89.7476H128.175Z" fill="#6D9FCF"/>
<path d="M261.287 120.968L229.233 69.9665L261.049 37.9116H236.502L203.97 72.1114V37.9116H185.261V120.968H203.97V95.5866L216.601 82.8361L239.6 120.968H261.287Z" fill="#6D9FCF"/>
<path d="M268.582 120.968H324.351V103.809H287.291V86.6493H322.563V69.3707H287.291V55.0711H324.351V37.9116H268.582V120.968Z" fill="#6D9FCF"/>
<path d="M405 120.968L382.716 85.696C392.011 82.002 397.135 74.2564 397.135 62.4592C397.135 47.683 389.27 37.9116 368.298 37.9116H339.103V120.968H357.692V87.9601H364.127L383.312 120.968H405ZM357.692 70.8006V55.0711H366.391C372.23 55.0711 378.427 55.0711 378.427 62.6976C378.427 70.4432 372.349 70.8006 366.391 70.8006H357.692Z" fill="#6D9FCF"/>
<path d="M71.8842 193.188H86.6745V166.331H115.784V152.809H86.6745V141.619H119.647V128.19H71.8842V193.188Z" fill="#6D9FCF"/>
<path d="M163.746 193.188H179.855L152.63 128.19H141.796L114.476 193.188H130.585L134.825 182.185H159.507L163.746 193.188ZM140.006 168.756L147.26 150.012L154.42 168.756H140.006Z" fill="#6D9FCF"/>
<path d="M186.834 193.188H201.624V128.19H186.834V193.188Z" fill="#6D9FCF"/>
<path d="M265.219 193.188L247.603 165.585C254.951 162.694 259.001 156.633 259.001 147.401C259.001 135.837 252.784 128.19 236.204 128.19H213.123V193.188H227.819V167.357H232.906L248.074 193.188H265.219ZM227.819 153.929V141.619H234.696C239.312 141.619 244.211 141.619 244.211 147.587C244.211 153.649 239.407 153.929 234.696 153.929H227.819Z" fill="#6D9FCF"/>
<path d="M270.636 193.188H314.724V179.76H285.426V166.331H313.311V152.809H285.426V141.619H314.724V128.19H270.636V193.188Z" fill="#6D9FCF"/>
<path d="M339.056 173.043L344.53 174.578L348.306 178.828L349.184 184.445L346.887 189.645L342.142 192.777L336.458 192.847L331.637 189.833L329.212 184.691L329.952 179.054L333.621 174.712L339.056 173.043Z" fill="#6D9FCF"/>
</svg>
