<svg width="532" height="615" viewBox="0 0 532 615" fill="none" xmlns="http://www.w3.org/2000/svg">
<path d="M454.996 -84.1547C456.74 -83.9578 458.402 -83.3053 459.814 -82.2626L541.118 -22.2346C542.53 -21.1919 543.643 -19.796 544.345 -18.1869L584.742 74.451C585.444 76.06 585.71 77.8254 585.513 79.5697L574.179 179.995C573.982 181.74 573.33 183.401 572.287 184.813L512.259 266.118C511.216 267.53 509.82 268.643 508.211 269.344L415.573 309.742C413.964 310.444 412.199 310.709 410.455 310.512L310.029 299.179C308.285 298.982 306.623 298.329 305.211 297.287L223.907 237.259C222.495 236.216 221.382 234.82 220.68 233.211L180.283 140.573C179.581 138.964 179.315 137.199 179.512 135.454L190.846 35.0288C191.043 33.2845 191.695 31.6228 192.738 30.2106L252.766 -51.0936C253.808 -52.5058 255.204 -53.6187 256.813 -54.3203L349.451 -94.7178C351.06 -95.4195 352.826 -95.6852 354.57 -95.4884L454.996 -84.1547Z" fill="#F2DDB0"/>
<path d="M338.02 109.054C340.37 109.113 342.624 109.999 344.387 111.555L444.357 199.811C446.119 201.367 447.277 203.494 447.627 205.819L467.478 337.687C467.828 340.012 467.348 342.385 466.122 344.391L396.566 458.168C395.34 460.174 393.446 461.684 391.217 462.432L264.8 504.88C262.571 505.629 260.15 505.568 257.962 504.708L133.835 455.966C131.647 455.107 129.831 453.504 128.707 451.439L64.9516 334.314C63.8276 332.249 63.467 329.854 63.9333 327.55L90.3805 196.845C90.8468 194.541 92.1101 192.474 93.9484 191.009L198.224 107.883C200.062 106.418 202.358 105.647 204.708 105.706L338.02 109.054Z" fill="#F2DDB0"/>
<path d="M580.95 157.005C584.483 156.473 588.031 157.867 590.258 160.66L711.215 312.393C713.442 315.186 714.01 318.956 712.704 322.281L641.779 502.899C640.473 506.225 637.492 508.601 633.959 509.133L442.077 538.019C438.544 538.551 434.996 537.157 432.769 534.364L311.811 382.631C309.584 379.838 309.017 376.068 310.323 372.743L381.248 192.125C382.554 188.799 385.535 186.423 389.067 185.891L580.95 157.005Z" fill="#F2DDB0"/>
</svg>
