<svg width="540" height="615" viewBox="0 0 540 615" fill="none" xmlns="http://www.w3.org/2000/svg">
<path d="M454.995 -84.1547C456.739 -83.9578 458.401 -83.3053 459.813 -82.2626L541.118 -22.2346C542.53 -21.1919 543.643 -19.796 544.344 -18.1869L584.742 74.451C585.443 76.06 585.709 77.8254 585.512 79.5697L574.179 179.995C573.982 181.74 573.329 183.401 572.287 184.813L512.258 266.118C511.216 267.53 509.82 268.643 508.211 269.344L415.573 309.742C413.964 310.444 412.198 310.709 410.454 310.512L310.029 299.179C308.284 298.982 306.623 298.329 305.21 297.287L223.906 237.259C222.494 236.216 221.381 234.82 220.679 233.211L180.282 140.573C179.58 138.964 179.315 137.199 179.511 135.454L190.845 35.0288C191.042 33.2845 191.695 31.6228 192.737 30.2106L252.765 -51.0936C253.808 -52.5058 255.204 -53.6187 256.813 -54.3203L349.451 -94.7178C351.06 -95.4195 352.825 -95.6852 354.57 -95.4884L454.995 -84.1547Z" fill="#F2DDB0"/>
<path d="M338.019 109.054C340.369 109.113 342.624 109.999 344.386 111.555L444.356 199.811C446.119 201.367 447.277 203.494 447.627 205.819L467.478 337.687C467.828 340.012 467.348 342.385 466.121 344.391L396.565 458.168C395.339 460.174 393.445 461.684 391.217 462.432L264.799 504.88C262.571 505.629 260.149 505.568 257.961 504.708L133.835 455.966C131.646 455.107 129.831 453.504 128.707 451.439L64.9511 334.314C63.827 332.249 63.4665 329.854 63.9328 327.55L90.38 196.845C90.8463 194.541 92.1095 192.474 93.9479 191.009L198.223 107.883C200.061 106.418 202.357 105.647 204.708 105.706L338.019 109.054Z" fill="#F2DDB0"/>
<path d="M580.949 157.005C584.481 156.473 588.03 157.867 590.257 160.66L711.214 312.393C713.441 315.186 714.008 318.956 712.703 322.281L641.777 502.899C640.471 506.225 637.491 508.601 633.958 509.133L442.075 538.019C438.542 538.551 434.994 537.157 432.767 534.364L311.81 382.631C309.583 379.838 309.015 376.068 310.321 372.743L381.247 192.125C382.552 188.799 385.533 186.423 389.066 185.891L580.949 157.005Z" fill="#F2DDB0"/>
</svg>
