<svg width="291" height="586" viewBox="0 0 291 586" fill="none" xmlns="http://www.w3.org/2000/svg">
<path d="M366.995 -84.1547C368.74 -83.9578 370.401 -83.3053 371.814 -82.2626L453.118 -22.2346C454.53 -21.1919 455.643 -19.796 456.344 -18.1869L496.742 74.451C497.444 76.06 497.709 77.8254 497.513 79.5697L486.179 179.995C485.982 181.74 485.329 183.401 484.287 184.813L424.259 266.118C423.216 267.53 421.82 268.643 420.211 269.344L327.573 309.742C325.964 310.444 324.199 310.709 322.454 310.512L222.029 299.179C220.285 298.982 218.623 298.329 217.211 297.287L135.906 237.259C134.494 236.216 133.381 234.82 132.68 233.211L92.2823 140.573C91.5806 138.964 91.3148 137.199 91.5117 135.454L102.845 35.0288C103.042 33.2845 103.695 31.6227 104.737 30.2106L164.766 -51.0936C165.808 -52.5058 167.204 -53.6187 168.813 -54.3203L261.451 -94.7178C263.06 -95.4195 264.826 -95.6852 266.57 -95.4884L366.995 -84.1547Z" fill="#F2DDB0"/>
<path d="M335.949 128.005C339.482 127.473 343.03 128.867 345.257 131.66L466.214 283.393C468.441 286.186 469.009 289.956 467.703 293.281L396.777 473.899C395.472 477.225 392.491 479.601 388.958 480.133L197.075 509.019C193.543 509.551 189.994 508.157 187.767 505.364L66.8101 353.631C64.5831 350.838 64.0156 347.068 65.3215 343.743L136.247 163.125C137.553 159.799 140.533 157.423 144.066 156.891L335.949 128.005Z" fill="#F2DDB0"/>
</svg>
