<svg width="390" height="581" viewBox="0 0 390 581" fill="none" xmlns="http://www.w3.org/2000/svg">
<path d="M66.0193 -56.9456C68.3695 -56.8865 70.6239 -56.0013 72.3864 -54.4453L172.356 33.811C174.119 35.3669 175.277 37.4941 175.627 39.819L195.478 171.687C195.828 174.012 195.348 176.385 194.121 178.391L124.566 292.168C123.339 294.174 121.445 295.684 119.217 296.432L-7.2005 338.88C-9.42924 339.629 -11.8504 339.568 -14.0387 338.708L-138.165 289.966C-140.354 289.107 -142.169 287.504 -143.293 285.439L-207.049 168.314C-208.173 166.249 -208.533 163.854 -208.067 161.55L-181.62 30.8449C-181.154 28.5405 -179.89 26.4742 -178.052 25.0087L-73.7768 -58.117C-71.9385 -59.5825 -69.6425 -60.3534 -67.2922 -60.2944L66.0193 -56.9456Z" fill="#F2DDB0"/>
<path d="M194.019 122.054C196.37 122.113 198.624 122.999 200.386 124.555L300.356 212.811C302.119 214.367 303.277 216.494 303.627 218.819L323.478 350.687C323.828 353.012 323.348 355.385 322.121 357.391L252.566 471.168C251.339 473.174 249.445 474.684 247.217 475.432L120.8 517.88C118.571 518.629 116.15 518.568 113.961 517.708L-10.1652 468.966C-12.3536 468.107 -14.1692 466.504 -15.2932 464.439L-79.0488 347.314C-80.1728 345.249 -80.5333 342.854 -80.0671 340.55L-53.6198 209.845C-53.1536 207.541 -51.8903 205.474 -50.0519 204.009L54.2232 120.883C56.0615 119.418 58.3575 118.647 60.7078 118.706L194.019 122.054Z" fill="#F2DDB0"/>
</svg>
