<svg width="1920" height="103" viewBox="0 0 1920 103" fill="none" xmlns="http://www.w3.org/2000/svg">
<g opacity="0.4">
<path d="M96.0007 12V76" stroke="#6D9FCF"/>
<path d="M192.002 12V76" stroke="#6D9FCF"/>
<path d="M287.999 12V76" stroke="#6D9FCF"/>
<path d="M383.999 12V76" stroke="#6D9FCF"/>
<path d="M480 12V76" stroke="#6D9FCF"/>
<path d="M576.001 12V76" stroke="#6D9FCF"/>
<path d="M672.001 12V76" stroke="#6D9FCF"/>
<path d="M767.999 12V76" stroke="#6D9FCF"/>
<path d="M863.999 12V76" stroke="#6D9FCF"/>
<path d="M960 12V76" stroke="#6D9FCF"/>
<path d="M1056 12V76" stroke="#6D9FCF"/>
<path d="M1152 12V76" stroke="#6D9FCF"/>
<path d="M1248 12V76" stroke="#6D9FCF"/>
<path d="M1344 12V76" stroke="#6D9FCF"/>
<path d="M1440 12V76" stroke="#6D9FCF"/>
<path d="M1536 12V76" stroke="#6D9FCF"/>
<path d="M1632 12V76" stroke="#6D9FCF"/>
<path d="M1728 12V76" stroke="#6D9FCF"/>
<path d="M1824 12V76" stroke="#6D9FCF"/>
<path d="M0 18.4L1920 18.4" stroke="#6D9FCF"/>
<path d="M0 24.8L1920 24.8" stroke="#6D9FCF"/>
<path d="M0 31.2L1920 31.2" stroke="#6D9FCF"/>
<path d="M0 37.6L1920 37.6" stroke="#6D9FCF"/>
<path d="M0 44L1920 44" stroke="#6D9FCF"/>
<path d="M0 50.4L1920 50.4" stroke="#6D9FCF"/>
<path d="M0 56.8L1920 56.8" stroke="#6D9FCF"/>
<path d="M0 63.2L1920 63.2" stroke="#6D9FCF"/>
<path d="M0 69.6L1920 69.6" stroke="#6D9FCF"/>
</g>
<path d="M945.69 90.528C944.082 90.528 942.786 91.764 942.786 93.36C942.786 94.8 943.818 95.952 945.222 96.108C945.606 96.156 945.978 96.12 946.326 96.024L944.478 99H945.654L948.162 94.86C948.438 94.416 948.606 93.876 948.606 93.348C948.606 91.764 947.286 90.528 945.69 90.528ZM945.69 95.196C944.658 95.196 943.83 94.404 943.83 93.36C943.83 92.316 944.658 91.524 945.69 91.524C946.734 91.524 947.55 92.316 947.55 93.36C947.55 94.404 946.722 95.196 945.69 95.196ZM953.014 93.528C952.642 93.48 952.258 93.516 951.91 93.612L953.77 90.636H952.594L950.086 94.776C949.81 95.22 949.642 95.76 949.642 96.288C949.642 97.872 950.95 99.108 952.558 99.108C954.154 99.108 955.462 97.872 955.462 96.276C955.462 94.836 954.43 93.684 953.014 93.528ZM952.558 98.112C951.514 98.112 950.686 97.32 950.686 96.276C950.686 95.232 951.526 94.44 952.558 94.44C953.578 94.44 954.418 95.232 954.418 96.276C954.418 97.32 953.578 98.112 952.558 98.112ZM959.472 99.12C961.5 99.12 962.136 97.056 962.136 94.836C962.136 92.616 961.476 90.516 959.388 90.516C957.096 90.516 956.724 92.904 956.724 94.824C956.724 96.744 957.12 99.12 959.472 99.12ZM959.448 98.136C957.984 98.136 957.78 96.456 957.78 94.824C957.78 93.156 957.984 91.5 959.388 91.5C960.768 91.5 961.02 93.06 961.02 94.824C961.02 96.528 960.78 98.136 959.448 98.136ZM964.119 99H965.187V95.412H966.627C968.415 95.412 969.411 94.56 969.411 93C969.411 91.464 968.439 90.636 966.627 90.636H964.119V99ZM965.187 94.428V91.62H966.519C967.743 91.62 968.343 92.076 968.343 93.012C968.343 93.96 967.743 94.428 966.519 94.428H965.187ZM970.169 99H971.465L973.769 95.58L976.109 99H977.393L974.513 94.8L977.345 90.636H976.073L973.781 94.056L971.501 90.636H970.205L973.037 94.8L970.169 99Z" fill="#F0CBCA"/>
<rect x="480" width="36" height="94" fill="#EF695D" fill-opacity="0.3"/>
<rect x="1404" width="36" height="94" fill="#EF695D" fill-opacity="0.3"/>
</svg>
