<svg width="97" height="174" viewBox="0 0 97 174" fill="none" xmlns="http://www.w3.org/2000/svg">
<path d="M-21.024 1.63358C-23.3743 1.69262 -25.6286 2.57785 -27.3911 4.13381L-67.846 39.8486C-69.6085 41.4046 -70.7664 43.5317 -71.1164 45.8566L-79.1497 99.2196C-79.4996 101.544 -79.0193 103.918 -77.793 105.924L-49.6458 151.966C-48.4195 153.972 -46.5257 155.482 -44.297 156.23L6.86041 173.408C9.08915 174.156 11.5103 174.095 13.6987 173.236L63.929 153.512C66.1174 152.652 67.933 151.049 69.057 148.984L94.8571 101.587C95.9811 99.5222 96.3416 97.1273 95.8753 94.8229L85.1729 41.9305C84.7066 39.6262 83.4434 37.5598 81.605 36.0943L39.4079 2.4558C37.5695 0.990296 35.2736 0.219366 32.9233 0.278406L-21.024 1.63358Z" fill="#F2DDB0"/>
</svg>
