<svg width="287" height="137" viewBox="0 0 287 137" fill="none" xmlns="http://www.w3.org/2000/svg">
<path d="M16.3149 0L11.7076 13.5074L7.19121 0H0.40152V21.109H5.16036V6.9051L9.46454 19.201H14.0415L18.3457 6.84453V21.109H23.1045V0H16.3149Z" fill="#6D9FCF"/>
<path d="M27.3973 21.109H32.1562V0H27.3973V21.109Z" fill="#6D9FCF"/>
<path d="M49.2768 0V12.8714L41.3049 0H36.4552V21.109H41.214V8.1771L49.1555 21.109H54.0356V0H49.2768Z" fill="#6D9FCF"/>
<path d="M58.3301 21.109H63.0889V0H58.3301V21.109Z" fill="#6D9FCF"/>
<path d="M44.3289 26.8628L31.4947 64.5213L18.9137 26.8628H0V85.7148H13.2565V46.1142L25.2464 80.3953H37.9962L49.9862 45.9454V85.7148H63.2426V26.8628H44.3289Z" fill="#6D9FCF"/>
<path d="M112.099 85.7148H126.538L102.136 26.8628H92.4258L67.9394 85.7148H82.378L86.1776 75.7513H108.3L112.099 85.7148ZM90.8216 63.5925L97.3231 46.6208L103.74 63.5925H90.8216Z" fill="#6D9FCF"/>
<path d="M185.142 85.7148L162.429 49.5761L184.973 26.8628H167.579L144.528 51.096V26.8628H131.272V85.7148H144.528V67.7299L153.478 58.6952L169.775 85.7148H185.142Z" fill="#6D9FCF"/>
<path d="M190.311 85.7148H229.827V73.556H203.567V61.3972H228.561V49.1539H203.567V39.0216H229.827V26.8628H190.311V85.7148Z" fill="#6D9FCF"/>
<path d="M286.973 85.7148L271.184 60.7217C277.77 58.1042 281.4 52.6158 281.4 44.2566C281.4 33.7866 275.828 26.8628 260.967 26.8628H240.28V85.7148H253.452V62.326H258.012L271.606 85.7148H286.973ZM253.452 50.1672V39.0216H259.616C263.753 39.0216 268.144 39.0216 268.144 44.4255C268.144 49.9139 263.838 50.1672 259.616 50.1672H253.452Z" fill="#6D9FCF"/>
<path d="M50.9354 136.889H61.4155V117.858H82.0418V108.277H61.4155V100.348H84.7787V90.8325H50.9354V136.889Z" fill="#6D9FCF"/>
<path d="M116.026 136.889H127.441L108.15 90.8325H100.473L81.1151 136.889H92.5297L95.5335 129.091H113.023L116.026 136.889ZM99.2049 119.576L104.345 106.295L109.418 119.576H99.2049Z" fill="#6D9FCF"/>
<path d="M132.386 136.889H142.866V90.8325H132.386V136.889Z" fill="#6D9FCF"/>
<path d="M187.928 136.889L175.445 117.33C180.652 115.281 183.522 110.986 183.522 104.444C183.522 96.2509 179.117 90.8325 167.368 90.8325H151.014V136.889H161.427V118.585H165.032L175.779 136.889H187.928ZM161.427 109.07V100.348H166.3C169.571 100.348 173.042 100.348 173.042 104.577C173.042 108.872 169.638 109.07 166.3 109.07H161.427Z" fill="#6D9FCF"/>
<path d="M191.766 136.889H223.006V127.373H202.246V117.858H222.005V108.277H202.246V100.348H223.006V90.8325H191.766V136.889Z" fill="#6D9FCF"/>
<path d="M240.247 122.614L244.126 123.701L246.801 126.713L247.424 130.693L245.796 134.378L242.434 136.597L238.406 136.647L234.99 134.511L233.272 130.868L233.796 126.874L236.396 123.797L240.247 122.614Z" fill="#6D9FCF"/>
</svg>
