<svg width="386" height="520" viewBox="0 0 386 520" fill="none" xmlns="http://www.w3.org/2000/svg">
<path d="M194.019 74.0544C196.37 74.1135 198.624 74.9987 200.386 76.5547L300.356 164.811C302.119 166.367 303.277 168.494 303.627 170.819L323.478 302.687C323.828 305.012 323.348 307.385 322.121 309.391L252.566 423.168C251.339 425.174 249.446 426.684 247.217 427.432L120.8 469.88C118.571 470.629 116.15 470.568 113.961 469.708L-10.1652 420.966C-12.3535 420.107 -14.1691 418.504 -15.2931 416.439L-79.0487 299.314C-80.1727 297.249 -80.5333 294.854 -80.067 292.55L-53.6198 161.845C-53.1535 159.541 -51.8903 157.474 -50.0519 156.009L54.2232 72.883C56.0616 71.4175 58.3576 70.6466 60.7078 70.7056L194.019 74.0544Z" fill="#F2DDB0"/>
</svg>
