<svg width="529" height="527" viewBox="0 0 529 527" fill="none" xmlns="http://www.w3.org/2000/svg">
<path d="M336.215 74.8202C337.819 75.0341 339.348 75.6344 340.67 76.5696L416.971 130.564C418.292 131.499 419.367 132.741 420.102 134.183L462.571 217.452C463.307 218.894 463.681 220.493 463.662 222.112L462.57 315.579C462.551 317.198 462.139 318.788 461.37 320.212L416.966 402.465C416.197 403.89 415.094 405.106 413.751 406.01L336.208 458.206C334.865 459.11 333.323 459.675 331.714 459.851L238.797 470.033C237.187 470.209 235.559 469.992 234.052 469.4L147.047 435.235C145.54 434.643 144.199 433.694 143.14 432.47L81.978 361.785C80.9187 360.56 80.1725 359.097 79.8034 357.521L58.4963 266.509C58.1272 264.932 58.1464 263.29 58.5522 261.723L81.9811 171.234C82.3869 169.666 83.1671 168.221 84.2548 167.022L147.052 97.7855C148.14 96.5863 149.503 95.6692 151.023 95.1128L238.803 62.9907C240.324 62.4343 241.956 62.2554 243.561 62.4693L336.215 74.8202Z" fill="#7AA8D5"/>
</svg>
