<svg width="258" height="389" viewBox="0 0 258 389" fill="none" xmlns="http://www.w3.org/2000/svg">
<path d="M66.0193 -56.9456C68.3696 -56.8865 70.624 -56.0013 72.3864 -54.4453L172.356 33.811C174.119 35.3669 175.277 37.4941 175.627 39.819L195.478 171.687C195.828 174.012 195.348 176.385 194.121 178.391L124.566 292.168C123.339 294.174 121.446 295.684 119.217 296.432L-7.20044 338.88C-9.42918 339.629 -11.8503 339.568 -14.0387 338.708L-138.165 289.966C-140.354 289.107 -142.169 287.504 -143.293 285.439L-207.049 168.314C-208.173 166.249 -208.533 163.854 -208.067 161.55L-181.62 30.8449C-181.154 28.5405 -179.89 26.4742 -178.052 25.0087L-73.7768 -58.117C-71.9384 -59.5825 -69.6424 -60.3534 -67.2922 -60.2944L66.0193 -56.9456Z" fill="#F2DDB0"/>
</svg>
