<svg width="1792" height="281" viewBox="0 0 1792 281" fill="none" xmlns="http://www.w3.org/2000/svg">
<g opacity="0.4">
<path d="M89.6008 0V281" stroke="#6D9FCF"/>
<path d="M268.799 0V281" stroke="#6D9FCF"/>
<path d="M448 0V281" stroke="#6D9FCF"/>
<path d="M627.201 0V281" stroke="#6D9FCF"/>
<path d="M806.399 0V281" stroke="#6D9FCF"/>
<path d="M985.601 0V281" stroke="#6D9FCF"/>
<path d="M1164.8 0V281" stroke="#6D9FCF"/>
<path d="M1344 0V281" stroke="#6D9FCF"/>
<path d="M1523.2 0V281" stroke="#6D9FCF"/>
<path d="M1702.4 0V281" stroke="#6D9FCF"/>
<path d="M0 28.1L1792 28.1" stroke="#6D9FCF"/>
<path d="M0 56.2L1792 56.2" stroke="#6D9FCF"/>
<path d="M0 84.3L1792 84.3001" stroke="#6D9FCF"/>
<path d="M0 112.4L1792 112.4" stroke="#6D9FCF"/>
<path d="M0 140.5L1792 140.5" stroke="#6D9FCF"/>
<path d="M0 168.6L1792 168.6" stroke="#6D9FCF"/>
<path d="M0 196.7L1792 196.7" stroke="#6D9FCF"/>
<path d="M0 224.8L1792 224.8" stroke="#6D9FCF"/>
<path d="M0 252.9L1792 252.9" stroke="#6D9FCF"/>
</g>
</svg>
