<svg width="1920" height="281" viewBox="0 0 1920 281" fill="none" xmlns="http://www.w3.org/2000/svg">
<g opacity="0.4">
<path d="M96.0508 0V281" stroke="#6D9FCF"/>
<path d="M288.148 0V281" stroke="#6D9FCF"/>
<path d="M480.25 0V281" stroke="#6D9FCF"/>
<path d="M672.352 0V281" stroke="#6D9FCF"/>
<path d="M864.449 0V281" stroke="#6D9FCF"/>
<path d="M1056.55 0V281" stroke="#6D9FCF"/>
<path d="M1248.65 0V281" stroke="#6D9FCF"/>
<path d="M1440.75 0V281" stroke="#6D9FCF"/>
<path d="M1632.85 0V281" stroke="#6D9FCF"/>
<path d="M1824.95 0V281" stroke="#6D9FCF"/>
<path d="M0 28.1001L1921 28.1001" stroke="#6D9FCF"/>
<path d="M0 56.2002L1921 56.2002" stroke="#6D9FCF"/>
<path d="M0 84.2998L1921 84.2998" stroke="#6D9FCF"/>
<path d="M0 112.4L1921 112.4" stroke="#6D9FCF"/>
<path d="M0 140.5L1921 140.5" stroke="#6D9FCF"/>
<path d="M0 168.6L1921 168.6" stroke="#6D9FCF"/>
<path d="M0 196.7L1921 196.7" stroke="#6D9FCF"/>
<path d="M0 224.8L1921 224.8" stroke="#6D9FCF"/>
<path d="M0 252.9L1921 252.9" stroke="#6D9FCF"/>
</g>
</svg>
