<svg width="229" height="1110" viewBox="0 0 229 1110" fill="none" xmlns="http://www.w3.org/2000/svg">
<g opacity="0.4">
<path d="M0 1054.5L233 1054.5" stroke="#6D9FCF"/>
<path d="M0 943.501L233 943.501" stroke="#6D9FCF"/>
<path d="M0 832.5L233 832.5" stroke="#6D9FCF"/>
<path d="M0 721.499L233 721.499" stroke="#6D9FCF"/>
<path d="M0 610.5L233 610.5" stroke="#6D9FCF"/>
<path d="M0 499.5L233 499.5" stroke="#6D9FCF"/>
<path d="M0 388.501L233 388.501" stroke="#6D9FCF"/>
<path d="M0 277.5L233 277.5" stroke="#6D9FCF"/>
<path d="M0 166.499L233 166.499" stroke="#6D9FCF"/>
<path d="M0 55.5005L233 55.5005" stroke="#6D9FCF"/>
<path d="M23.3 1110L23.3 0" stroke="#6D9FCF"/>
<path d="M46.6001 1110L46.6 0" stroke="#6D9FCF"/>
<path d="M69.8999 1110L69.8999 0" stroke="#6D9FCF"/>
<path d="M93.2 1110L93.1999 0" stroke="#6D9FCF"/>
<path d="M116.5 1110L116.5 0" stroke="#6D9FCF"/>
<path d="M139.8 1110L139.8 0" stroke="#6D9FCF"/>
<path d="M163.1 1110L163.1 0" stroke="#6D9FCF"/>
<path d="M186.4 1110L186.4 0" stroke="#6D9FCF"/>
<path d="M209.7 1110L209.7 0" stroke="#6D9FCF"/>
</g>
</svg>
