<svg width="404" height="1069" viewBox="0 0 404 1069" fill="none" xmlns="http://www.w3.org/2000/svg">
<g opacity="0.4">
<path d="M20.2002 0V1069" stroke="#6D9FCF"/>
<path d="M40.4004 0V1069" stroke="#6D9FCF"/>
<path d="M60.5996 0V1069" stroke="#6D9FCF"/>
<path d="M80.7998 0V1069" stroke="#6D9FCF"/>
<path d="M101 0V1069" stroke="#6D9FCF"/>
<path d="M121.2 0V1069" stroke="#6D9FCF"/>
<path d="M141.4 0V1069" stroke="#6D9FCF"/>
<path d="M161.6 0V1069" stroke="#6D9FCF"/>
<path d="M181.8 0V1069" stroke="#6D9FCF"/>
<path d="M202 0V1069" stroke="#6D9FCF"/>
<path d="M222.2 0V1069" stroke="#6D9FCF"/>
<path d="M242.4 0V1069" stroke="#6D9FCF"/>
<path d="M262.6 0V1069" stroke="#6D9FCF"/>
<path d="M282.8 0V1069" stroke="#6D9FCF"/>
<path d="M303 0V1069" stroke="#6D9FCF"/>
<path d="M323.2 0V1069" stroke="#6D9FCF"/>
<path d="M343.4 0V1069" stroke="#6D9FCF"/>
<path d="M363.6 0V1069" stroke="#6D9FCF"/>
<path d="M383.8 0V1069" stroke="#6D9FCF"/>
<path d="M0 106.9L404 106.9" stroke="#6D9FCF"/>
<path d="M0 213.801L404 213.801" stroke="#6D9FCF"/>
<path d="M0 320.699L404 320.699" stroke="#6D9FCF"/>
<path d="M0 427.6L404 427.6" stroke="#6D9FCF"/>
<path d="M0 534.5L404 534.5" stroke="#6D9FCF"/>
<path d="M0 641.4L404 641.4" stroke="#6D9FCF"/>
<path d="M0 748.301L404 748.301" stroke="#6D9FCF"/>
<path d="M0 855.199L404 855.199" stroke="#6D9FCF"/>
<path d="M0 962.1L404 962.1" stroke="#6D9FCF"/>
</g>
</svg>
