<svg width="465" height="535" viewBox="0 0 465 535" fill="none" xmlns="http://www.w3.org/2000/svg">
<g opacity="0.4">
<path d="M23.25 0V535" stroke="#6D9FCF"/>
<path d="M46.5005 0V535" stroke="#6D9FCF"/>
<path d="M69.7495 0V535" stroke="#6D9FCF"/>
<path d="M92.9998 0V535" stroke="#6D9FCF"/>
<path d="M116.25 0V535" stroke="#6D9FCF"/>
<path d="M139.5 0V535" stroke="#6D9FCF"/>
<path d="M162.75 0V535" stroke="#6D9FCF"/>
<path d="M186 0V535" stroke="#6D9FCF"/>
<path d="M209.25 0V535" stroke="#6D9FCF"/>
<path d="M232.5 0V535" stroke="#6D9FCF"/>
<path d="M255.75 0V535" stroke="#6D9FCF"/>
<path d="M279 0V535" stroke="#6D9FCF"/>
<path d="M302.25 0V535" stroke="#6D9FCF"/>
<path d="M325.5 0V535" stroke="#6D9FCF"/>
<path d="M348.75 0V535" stroke="#6D9FCF"/>
<path d="M372 0V535" stroke="#6D9FCF"/>
<path d="M395.25 0V535" stroke="#6D9FCF"/>
<path d="M418.5 0V535" stroke="#6D9FCF"/>
<path d="M441.75 0V535" stroke="#6D9FCF"/>
<path d="M0 53.5L465 53.5" stroke="#6D9FCF"/>
<path d="M0 107L465 107" stroke="#6D9FCF"/>
<path d="M0 160.5L465 160.5" stroke="#6D9FCF"/>
<path d="M0 214L465 214" stroke="#6D9FCF"/>
<path d="M0 267.5L465 267.5" stroke="#6D9FCF"/>
<path d="M0 321L465 321" stroke="#6D9FCF"/>
<path d="M0 374.5L465 374.5" stroke="#6D9FCF"/>
<path d="M0 428L465 428" stroke="#6D9FCF"/>
<path d="M0 481.5L465 481.5" stroke="#6D9FCF"/>
</g>
</svg>
