<svg width="410" height="535" viewBox="0 0 410 535" fill="none" xmlns="http://www.w3.org/2000/svg">
<g opacity="0.4">
<path d="M20.5 0V535" stroke="#6D9FCF"/>
<path d="M41.0005 0V535" stroke="#6D9FCF"/>
<path d="M61.4998 0V535" stroke="#6D9FCF"/>
<path d="M81.9998 0V535" stroke="#6D9FCF"/>
<path d="M102.5 0V535" stroke="#6D9FCF"/>
<path d="M123 0V535" stroke="#6D9FCF"/>
<path d="M143.5 0V535" stroke="#6D9FCF"/>
<path d="M164 0V535" stroke="#6D9FCF"/>
<path d="M184.5 0V535" stroke="#6D9FCF"/>
<path d="M205 0V535" stroke="#6D9FCF"/>
<path d="M225.5 0V535" stroke="#6D9FCF"/>
<path d="M246 0V535" stroke="#6D9FCF"/>
<path d="M266.5 0V535" stroke="#6D9FCF"/>
<path d="M287 0V535" stroke="#6D9FCF"/>
<path d="M307.5 0V535" stroke="#6D9FCF"/>
<path d="M328 0V535" stroke="#6D9FCF"/>
<path d="M348.5 0V535" stroke="#6D9FCF"/>
<path d="M369 0V535" stroke="#6D9FCF"/>
<path d="M389.5 0V535" stroke="#6D9FCF"/>
<path d="M0 53.5L410 53.5" stroke="#6D9FCF"/>
<path d="M0 107L410 107" stroke="#6D9FCF"/>
<path d="M0 160.5L410 160.5" stroke="#6D9FCF"/>
<path d="M0 214L410 214" stroke="#6D9FCF"/>
<path d="M0 267.5L410 267.5" stroke="#6D9FCF"/>
<path d="M0 321L410 321" stroke="#6D9FCF"/>
<path d="M0 374.5L410 374.5" stroke="#6D9FCF"/>
<path d="M0 428L410 428" stroke="#6D9FCF"/>
<path d="M0 481.5L410 481.5" stroke="#6D9FCF"/>
</g>
</svg>
