<svg width="465" height="1069" viewBox="0 0 465 1069" fill="none" xmlns="http://www.w3.org/2000/svg">
<g opacity="0.4">
<path d="M23.25 0V1069" stroke="#6D9FCF"/>
<path d="M46.5005 0V1069" stroke="#6D9FCF"/>
<path d="M69.7495 0V1069" stroke="#6D9FCF"/>
<path d="M92.9998 0V1069" stroke="#6D9FCF"/>
<path d="M116.25 0V1069" stroke="#6D9FCF"/>
<path d="M139.5 0V1069" stroke="#6D9FCF"/>
<path d="M162.75 0V1069" stroke="#6D9FCF"/>
<path d="M186 0V1069" stroke="#6D9FCF"/>
<path d="M209.25 0V1069" stroke="#6D9FCF"/>
<path d="M232.5 0V1069" stroke="#6D9FCF"/>
<path d="M255.75 0V1069" stroke="#6D9FCF"/>
<path d="M279 0V1069" stroke="#6D9FCF"/>
<path d="M302.25 0V1069" stroke="#6D9FCF"/>
<path d="M325.5 0V1069" stroke="#6D9FCF"/>
<path d="M348.75 0V1069" stroke="#6D9FCF"/>
<path d="M372 0V1069" stroke="#6D9FCF"/>
<path d="M395.25 0V1069" stroke="#6D9FCF"/>
<path d="M418.5 0V1069" stroke="#6D9FCF"/>
<path d="M441.75 0V1069" stroke="#6D9FCF"/>
<path d="M0 106.9L465 106.9" stroke="#6D9FCF"/>
<path d="M0 213.8L465 213.8" stroke="#6D9FCF"/>
<path d="M0 320.7L465 320.7" stroke="#6D9FCF"/>
<path d="M0 427.601L465 427.601" stroke="#6D9FCF"/>
<path d="M0 534.5L465 534.5" stroke="#6D9FCF"/>
<path d="M0 641.4L465 641.4" stroke="#6D9FCF"/>
<path d="M0 748.3L465 748.3" stroke="#6D9FCF"/>
<path d="M0 855.2L465 855.2" stroke="#6D9FCF"/>
<path d="M0 962.1L465 962.1" stroke="#6D9FCF"/>
</g>
</svg>
