<svg width="1401" height="631" viewBox="0 0 1401 631" fill="none" xmlns="http://www.w3.org/2000/svg">
<path d="M70.0505 -1V631" stroke="#C0DAEC"/>
<path d="M140.101 -1V631" stroke="#C0DAEC"/>
<path d="M210.149 -1V631" stroke="#C0DAEC"/>
<path d="M280.199 -1V631" stroke="#C0DAEC"/>
<path d="M350.25 -1V631" stroke="#C0DAEC"/>
<path d="M420.301 -1V631" stroke="#C0DAEC"/>
<path d="M490.351 -1V631" stroke="#C0DAEC"/>
<path d="M560.399 -1V631" stroke="#C0DAEC"/>
<path d="M630.449 -1V631" stroke="#C0DAEC"/>
<path d="M700.5 -1V631" stroke="#C0DAEC"/>
<path d="M770.551 -1V631" stroke="#C0DAEC"/>
<path d="M840.601 -1V631" stroke="#C0DAEC"/>
<path d="M910.649 -1V631" stroke="#C0DAEC"/>
<path d="M980.699 -1V631" stroke="#C0DAEC"/>
<path d="M1050.75 -1V631" stroke="#C0DAEC"/>
<path d="M1120.8 -1V631" stroke="#C0DAEC"/>
<path d="M1190.85 -1V631" stroke="#C0DAEC"/>
<path d="M1260.9 -1V631" stroke="#C0DAEC"/>
<path d="M1330.95 -1V631" stroke="#C0DAEC"/>
<path d="M0 30.6L1401 30.6" stroke="#C0DAEC"/>
<path d="M0 62.2L1401 62.2" stroke="#C0DAEC"/>
<path d="M0 93.8L1401 93.8" stroke="#C0DAEC"/>
<path d="M0 125.4L1401 125.4" stroke="#C0DAEC"/>
<path d="M0 157L1401 157" stroke="#C0DAEC"/>
<path d="M0 188.6L1401 188.6" stroke="#C0DAEC"/>
<path d="M0 220.2L1401 220.2" stroke="#C0DAEC"/>
<path d="M0 251.8L1401 251.8" stroke="#C0DAEC"/>
<path d="M0 283.4L1401 283.4" stroke="#C0DAEC"/>
<path d="M0 315L1401 315" stroke="#C0DAEC"/>
<path d="M0 346.6L1401 346.6" stroke="#C0DAEC"/>
<path d="M0 378.2L1401 378.2" stroke="#C0DAEC"/>
<path d="M0 409.8L1401 409.8" stroke="#C0DAEC"/>
<path d="M0 441.4L1401 441.4" stroke="#C0DAEC"/>
<path d="M0 473L1401 473" stroke="#C0DAEC"/>
<path d="M0 504.6L1401 504.6" stroke="#C0DAEC"/>
<path d="M0 536.2L1401 536.2" stroke="#C0DAEC"/>
<path d="M0 567.8L1401 567.8" stroke="#C0DAEC"/>
<path d="M0 599.4L1401 599.4" stroke="#C0DAEC"/>
<path d="M1000.41 269.52C1002.99 269.52 1005.21 268.095 1005.21 265.473C1005.21 263.877 1004.36 262.604 1002.82 262.186C1003.9 261.673 1004.51 260.666 1004.51 259.45C1004.51 257.208 1002.55 255.897 1000.39 255.897C998.087 255.897 996.206 257.322 996.206 259.754L998.125 259.887C998.144 258.538 999.056 257.778 1000.42 257.778C1001.6 257.778 1002.55 258.386 1002.55 259.678C1002.55 260.913 1001.66 261.597 999.797 261.597V263.174C1001.32 263.174 1003.26 263.307 1003.26 265.283C1003.26 266.898 1001.96 267.639 1000.44 267.639C998.733 267.639 997.498 266.746 997.498 265.112L995.56 265.226C995.56 268.076 997.764 269.52 1000.41 269.52ZM1011.62 269.52C1014.98 269.52 1015.93 266.119 1015.93 262.737C1015.93 259.317 1014.96 255.878 1011.48 255.878C1007.66 255.878 1007.13 259.773 1007.13 262.718C1007.13 265.625 1007.7 269.52 1011.62 269.52ZM1011.56 267.639C1009.32 267.639 1009.15 265.093 1009.15 262.718C1009.15 260.267 1009.32 257.759 1011.48 257.759C1013.59 257.759 1013.84 260.191 1013.84 262.699C1013.84 265.131 1013.61 267.639 1011.56 267.639Z" fill="#C0DAEC"/>
<path d="M1000.41 319.287V320.199C1000.41 321.054 999.987 321.377 999.151 321.377H997.232V323.068H1000.41V332.53H1002.36V319.287H1000.41Z" fill="#C0DAEC"/>
<path d="M999.208 393.887C1001.85 392.234 1004.55 389.498 1004.55 386.382C1004.55 383.893 1002.86 382.316 1000.44 382.316C997.574 382.316 996.016 384.558 996.016 387.047L997.935 387.199C997.973 385.641 998.638 384.197 1000.42 384.197C1001.87 384.197 1002.59 385.128 1002.59 386.496C1002.59 389.726 998.467 392.481 995.883 394.077V395.73H1005.12V393.887H999.208Z" fill="#C0DAEC"/>
<path d="M1070.04 300.385C1073.41 300.385 1074.36 296.984 1074.36 293.602C1074.36 290.182 1073.39 286.743 1069.91 286.743C1066.09 286.743 1065.56 290.638 1065.56 293.583C1065.56 296.49 1066.13 300.385 1070.04 300.385ZM1069.99 298.504C1067.75 298.504 1067.57 295.958 1067.57 293.583C1067.57 291.132 1067.75 288.624 1069.91 288.624C1072.02 288.624 1072.27 291.056 1072.27 293.564C1072.27 295.996 1072.04 298.504 1069.99 298.504ZM1084.03 295.198V286.952H1082.3L1075.75 295.863V297.06H1082.07V300.195H1084.03V297.06H1086.16V295.198H1084.03ZM1078.23 295.198L1082.07 289.821V295.198H1078.23Z" fill="#C0DAEC"/>
<path d="M1070.04 363.585C1073.41 363.585 1074.36 360.184 1074.36 356.802C1074.36 353.382 1073.39 349.943 1069.91 349.943C1066.09 349.943 1065.56 353.838 1065.56 356.783C1065.56 359.69 1066.13 363.585 1070.04 363.585ZM1069.99 361.704C1067.75 361.704 1067.57 359.158 1067.57 356.783C1067.57 354.332 1067.75 351.824 1069.91 351.824C1072.02 351.824 1072.27 354.256 1072.27 356.764C1072.27 359.196 1072.04 361.704 1069.99 361.704ZM1081.2 354.37C1080.46 354.37 1079.64 354.541 1078.86 355.111L1079.43 352.033H1085.02V350.152H1077.82L1076.58 357.087L1078.44 357.562C1078.96 356.783 1079.77 356.194 1080.93 356.194C1082.7 356.194 1083.56 357.41 1083.56 358.816C1083.56 360.279 1082.62 361.704 1080.86 361.704C1079.22 361.704 1078.27 360.564 1078.1 359.31L1076.16 359.633C1076.51 361.818 1078.37 363.566 1080.86 363.566C1083.63 363.566 1085.63 361.343 1085.63 358.816C1085.63 356.403 1083.8 354.37 1081.2 354.37Z" fill="#C0DAEC"/>
<path d="M1070.04 426.785C1073.41 426.785 1074.36 423.384 1074.36 420.002C1074.36 416.582 1073.39 413.143 1069.91 413.143C1066.09 413.143 1065.56 417.038 1065.56 419.983C1065.56 422.89 1066.13 426.785 1070.04 426.785ZM1069.99 424.904C1067.75 424.904 1067.57 422.358 1067.57 419.983C1067.57 417.532 1067.75 415.024 1069.91 415.024C1072.02 415.024 1072.27 417.456 1072.27 419.964C1072.27 422.396 1072.04 424.904 1069.99 424.904ZM1081.2 417.57C1080.46 417.57 1079.64 417.741 1078.86 418.311L1079.43 415.233H1085.02V413.352H1077.82L1076.58 420.287L1078.44 420.762C1078.96 419.983 1079.77 419.394 1080.93 419.394C1082.7 419.394 1083.56 420.61 1083.56 422.016C1083.56 423.479 1082.62 424.904 1080.86 424.904C1079.22 424.904 1078.27 423.764 1078.1 422.51L1076.16 422.833C1076.51 425.018 1078.37 426.766 1080.86 426.766C1083.63 426.766 1085.63 424.543 1085.63 422.016C1085.63 419.603 1083.8 417.57 1081.2 417.57Z" fill="#C0DAEC"/>
<path d="M1199.34 419.546V421.37H1202.38V421.617C1202.38 423.821 1200.87 424.904 1198.69 424.904C1195.8 424.904 1194.26 422.985 1194.26 419.907C1194.26 416.886 1195.78 415.024 1198.56 415.024C1200.48 415.024 1201.79 415.917 1202.41 417.608L1204.28 416.886C1203.34 414.454 1201.31 413.086 1198.58 413.086C1194.57 413.086 1192.23 416.012 1192.23 419.945C1192.23 424.068 1194.81 426.842 1198.56 426.842C1200.38 426.842 1201.86 426.196 1202.62 425.037L1202.89 426.595H1204.37V419.546H1199.34ZM1207.58 426.595H1216.34V424.714H1209.61V420.743H1215.79V418.862H1209.61V415.233H1216.34V413.352H1207.58V426.595ZM1227.3 413.352V423.042L1221.41 413.352H1219.3V426.595H1221.34V416.848L1227.21 426.595H1229.34V413.352H1227.3ZM1235.77 426.595H1237.82V415.233H1242.12V413.352H1231.5V415.233H1235.77V426.595Z" fill="#C0DAEC"/>
</svg>
