<svg width="1529" height="631" viewBox="0 0 1529 631" fill="none" xmlns="http://www.w3.org/2000/svg">
<path d="M76.4507 -1V631" stroke="#C0DAEC"/>
<path d="M152.901 -1V631" stroke="#C0DAEC"/>
<path d="M229.349 -1V631" stroke="#C0DAEC"/>
<path d="M305.799 -1V631" stroke="#C0DAEC"/>
<path d="M382.25 -1V631" stroke="#C0DAEC"/>
<path d="M458.701 -1V631" stroke="#C0DAEC"/>
<path d="M535.151 -1V631" stroke="#C0DAEC"/>
<path d="M611.599 -1V631" stroke="#C0DAEC"/>
<path d="M688.049 -1V631" stroke="#C0DAEC"/>
<path d="M764.5 -1V631" stroke="#C0DAEC"/>
<path d="M840.951 -1V631" stroke="#C0DAEC"/>
<path d="M917.401 -1V631" stroke="#C0DAEC"/>
<path d="M993.849 -1V631" stroke="#C0DAEC"/>
<path d="M1070.3 -1V631" stroke="#C0DAEC"/>
<path d="M1146.75 -1V631" stroke="#C0DAEC"/>
<path d="M1223.2 -1V631" stroke="#C0DAEC"/>
<path d="M1299.65 -1V631" stroke="#C0DAEC"/>
<path d="M1376.1 -1V631" stroke="#C0DAEC"/>
<path d="M1452.55 -1V631" stroke="#C0DAEC"/>
<path d="M0 30.6001L1529 30.6001" stroke="#C0DAEC"/>
<path d="M0 62.2002L1529 62.2002" stroke="#C0DAEC"/>
<path d="M0 93.7998L1529 93.7998" stroke="#C0DAEC"/>
<path d="M0 125.4L1529 125.4" stroke="#C0DAEC"/>
<path d="M0 157L1529 157" stroke="#C0DAEC"/>
<path d="M0 188.6L1529 188.6" stroke="#C0DAEC"/>
<path d="M0 220.2L1529 220.2" stroke="#C0DAEC"/>
<path d="M0 251.8L1529 251.8" stroke="#C0DAEC"/>
<path d="M0 283.4L1529 283.4" stroke="#C0DAEC"/>
<path d="M0 315L1529 315" stroke="#C0DAEC"/>
<path d="M0 346.6L1529 346.6" stroke="#C0DAEC"/>
<path d="M0 378.2L1529 378.2" stroke="#C0DAEC"/>
<path d="M0 409.8L1529 409.8" stroke="#C0DAEC"/>
<path d="M0 441.4L1529 441.4" stroke="#C0DAEC"/>
<path d="M0 473L1529 473" stroke="#C0DAEC"/>
<path d="M0 504.6L1529 504.6" stroke="#C0DAEC"/>
<path d="M0 536.2L1529 536.2" stroke="#C0DAEC"/>
<path d="M0 567.8L1529 567.8" stroke="#C0DAEC"/>
<path d="M0 599.4L1529 599.4" stroke="#C0DAEC"/>
<path d="M1091.31 269.52C1093.89 269.52 1096.12 268.095 1096.12 265.473C1096.12 263.877 1095.26 262.604 1093.72 262.186C1094.81 261.673 1095.41 260.666 1095.41 259.45C1095.41 257.208 1093.46 255.897 1091.29 255.897C1088.99 255.897 1087.11 257.322 1087.11 259.754L1089.03 259.887C1089.05 258.538 1089.96 257.778 1091.33 257.778C1092.51 257.778 1093.46 258.386 1093.46 259.678C1093.46 260.913 1092.56 261.597 1090.7 261.597V263.174C1092.22 263.174 1094.16 263.307 1094.16 265.283C1094.16 266.898 1092.87 267.639 1091.35 267.639C1089.64 267.639 1088.4 266.746 1088.4 265.112L1086.47 265.226C1086.47 268.076 1088.67 269.52 1091.31 269.52ZM1102.52 269.52C1105.89 269.52 1106.84 266.119 1106.84 262.737C1106.84 259.317 1105.87 255.878 1102.39 255.878C1098.57 255.878 1098.04 259.773 1098.04 262.718C1098.04 265.625 1098.61 269.52 1102.52 269.52ZM1102.47 267.639C1100.22 267.639 1100.05 265.093 1100.05 262.718C1100.05 260.267 1100.22 257.759 1102.39 257.759C1104.5 257.759 1104.75 260.191 1104.75 262.699C1104.75 265.131 1104.52 267.639 1102.47 267.639Z" fill="#C0DAEC"/>
<path d="M1091.31 319.287V320.199C1091.31 321.054 1090.89 321.377 1090.06 321.377H1088.14V323.068H1091.31V332.53H1093.27V319.287H1091.31Z" fill="#C0DAEC"/>
<path d="M1090.11 393.887C1092.75 392.234 1095.45 389.498 1095.45 386.382C1095.45 383.893 1093.76 382.316 1091.35 382.316C1088.48 382.316 1086.92 384.558 1086.92 387.047L1088.84 387.199C1088.88 385.641 1089.54 384.197 1091.33 384.197C1092.77 384.197 1093.5 385.128 1093.5 386.496C1093.5 389.726 1089.37 392.481 1086.79 394.077V395.73H1096.02V393.887H1090.11Z" fill="#C0DAEC"/>
<path d="M1167.3 300.385C1170.66 300.385 1171.61 296.984 1171.61 293.602C1171.61 290.182 1170.64 286.743 1167.16 286.743C1163.34 286.743 1162.81 290.638 1162.81 293.583C1162.81 296.49 1163.38 300.385 1167.3 300.385ZM1167.24 298.504C1165 298.504 1164.83 295.958 1164.83 293.583C1164.83 291.132 1165 288.624 1167.16 288.624C1169.27 288.624 1169.52 291.056 1169.52 293.564C1169.52 295.996 1169.29 298.504 1167.24 298.504ZM1181.28 295.198V286.952H1179.55L1173 295.863V297.06H1179.32V300.195H1181.28V297.06H1183.41V295.198H1181.28ZM1175.49 295.198L1179.32 289.821V295.198H1175.49Z" fill="#C0DAEC"/>
<path d="M1167.3 363.586C1170.66 363.586 1171.61 360.185 1171.61 356.803C1171.61 353.383 1170.64 349.944 1167.16 349.944C1163.34 349.944 1162.81 353.839 1162.81 356.784C1162.81 359.691 1163.38 363.586 1167.3 363.586ZM1167.24 361.705C1165 361.705 1164.83 359.159 1164.83 356.784C1164.83 354.333 1165 351.825 1167.16 351.825C1169.27 351.825 1169.52 354.257 1169.52 356.765C1169.52 359.197 1169.29 361.705 1167.24 361.705ZM1178.45 354.371C1177.71 354.371 1176.89 354.542 1176.11 355.112L1176.68 352.034H1182.27V350.153H1175.07L1173.83 357.088L1175.7 357.563C1176.21 356.784 1177.03 356.195 1178.18 356.195C1179.95 356.195 1180.81 357.411 1180.81 358.817C1180.81 360.28 1179.88 361.705 1178.11 361.705C1176.47 361.705 1175.52 360.565 1175.35 359.311L1173.42 359.634C1173.76 361.819 1175.62 363.567 1178.11 363.567C1180.88 363.567 1182.88 361.344 1182.88 358.817C1182.88 356.404 1181.05 354.371 1178.45 354.371Z" fill="#C0DAEC"/>
<path d="M1167.3 426.785C1170.66 426.785 1171.61 423.384 1171.61 420.002C1171.61 416.582 1170.64 413.143 1167.16 413.143C1163.34 413.143 1162.81 417.038 1162.81 419.983C1162.81 422.89 1163.38 426.785 1167.3 426.785ZM1167.24 424.904C1165 424.904 1164.83 422.358 1164.83 419.983C1164.83 417.532 1165 415.024 1167.16 415.024C1169.27 415.024 1169.52 417.456 1169.52 419.964C1169.52 422.396 1169.29 424.904 1167.24 424.904ZM1178.45 417.57C1177.71 417.57 1176.89 417.741 1176.11 418.311L1176.68 415.233H1182.27V413.352H1175.07L1173.83 420.287L1175.7 420.762C1176.21 419.983 1177.03 419.394 1178.18 419.394C1179.95 419.394 1180.81 420.61 1180.81 422.016C1180.81 423.479 1179.88 424.904 1178.11 424.904C1176.47 424.904 1175.52 423.764 1175.35 422.51L1173.42 422.833C1173.76 425.018 1175.62 426.766 1178.11 426.766C1180.88 426.766 1182.88 424.543 1182.88 422.016C1182.88 419.603 1181.05 417.57 1178.45 417.57Z" fill="#C0DAEC"/>
<path d="M1308.18 419.546V421.37H1311.22V421.617C1311.22 423.821 1309.72 424.904 1307.53 424.904C1304.64 424.904 1303.11 422.985 1303.11 419.907C1303.11 416.886 1304.63 415.024 1307.4 415.024C1309.32 415.024 1310.63 415.917 1311.26 417.608L1313.12 416.886C1312.19 414.454 1310.15 413.086 1307.42 413.086C1303.41 413.086 1301.07 416.012 1301.07 419.945C1301.07 424.068 1303.66 426.842 1307.4 426.842C1309.22 426.842 1310.71 426.196 1311.47 425.037L1311.73 426.595H1313.21V419.546H1308.18ZM1316.42 426.595H1325.18V424.714H1318.45V420.743H1324.63V418.862H1318.45V415.233H1325.18V413.352H1316.42V426.595ZM1336.15 413.352V423.042L1330.26 413.352H1328.15V426.595H1330.18V416.848L1336.05 426.595H1338.18V413.352H1336.15ZM1344.61 426.595H1346.67V415.233H1350.96V413.352H1340.34V415.233H1344.61V426.595Z" fill="#C0DAEC"/>
</svg>
