<svg width="834" height="233" viewBox="0 0 834 233" fill="none" xmlns="http://www.w3.org/2000/svg">
<g opacity="0.4">
<path d="M41.7003 0V233" stroke="#6D9FCF"/>
<path d="M125.099 0V233" stroke="#6D9FCF"/>
<path d="M208.5 0V233" stroke="#6D9FCF"/>
<path d="M291.901 0V233" stroke="#6D9FCF"/>
<path d="M375.3 0V233" stroke="#6D9FCF"/>
<path d="M458.7 0V233" stroke="#6D9FCF"/>
<path d="M542.099 0V233" stroke="#6D9FCF"/>
<path d="M625.5 0V233" stroke="#6D9FCF"/>
<path d="M708.901 0V233" stroke="#6D9FCF"/>
<path d="M792.3 0V233" stroke="#6D9FCF"/>
<path d="M0 23.3L834 23.3" stroke="#6D9FCF"/>
<path d="M0 46.6L834 46.6" stroke="#6D9FCF"/>
<path d="M0 69.9L834 69.9" stroke="#6D9FCF"/>
<path d="M0 93.2L834 93.2" stroke="#6D9FCF"/>
<path d="M0 116.5L834 116.5" stroke="#6D9FCF"/>
<path d="M0 139.8L834 139.8" stroke="#6D9FCF"/>
<path d="M0 163.1L834 163.1" stroke="#6D9FCF"/>
<path d="M0 186.4L834 186.4" stroke="#6D9FCF"/>
<path d="M0 209.7L834 209.7" stroke="#6D9FCF"/>
<path d="M556.787 162.19C559.371 162.19 561.594 160.765 561.594 158.143C561.594 156.547 560.739 155.274 559.2 154.856C560.283 154.343 560.891 153.336 560.891 152.12C560.891 149.878 558.934 148.567 556.768 148.567C554.469 148.567 552.588 149.992 552.588 152.424L554.507 152.557C554.526 151.208 555.438 150.448 556.806 150.448C557.984 150.448 558.934 151.056 558.934 152.348C558.934 153.583 558.041 154.267 556.179 154.267V155.844C557.699 155.844 559.637 155.977 559.637 157.953C559.637 159.568 558.345 160.309 556.825 160.309C555.115 160.309 553.88 159.416 553.88 157.782L551.942 157.896C551.942 160.746 554.146 162.19 556.787 162.19ZM567.999 162.19C571.362 162.19 572.312 158.789 572.312 155.407C572.312 151.987 571.343 148.548 567.866 148.548C564.047 148.548 563.515 152.443 563.515 155.388C563.515 158.295 564.085 162.19 567.999 162.19ZM567.942 160.309C565.7 160.309 565.529 157.763 565.529 155.388C565.529 152.937 565.7 150.429 567.866 150.429C569.975 150.429 570.222 152.861 570.222 155.369C570.222 157.801 569.994 160.309 567.942 160.309Z" fill="#356D9C"/>
<path d="M556.787 171.757V172.669C556.787 173.524 556.369 173.847 555.533 173.847H553.614V175.538H556.787V185H558.744V171.757H556.787Z" fill="#356D9C"/>
<path d="M555.59 204.157C558.231 202.504 560.929 199.768 560.929 196.652C560.929 194.163 559.238 192.586 556.825 192.586C553.956 192.586 552.398 194.828 552.398 197.317L554.317 197.469C554.355 195.911 555.02 194.467 556.806 194.467C558.25 194.467 558.972 195.398 558.972 196.766C558.972 199.996 554.849 202.751 552.265 204.347V206H561.499V204.157H555.59Z" fill="#356D9C"/>
<path d="M637.271 162.19C640.634 162.19 641.584 158.789 641.584 155.407C641.584 151.987 640.615 148.548 637.138 148.548C633.319 148.548 632.787 152.443 632.787 155.388C632.787 158.295 633.357 162.19 637.271 162.19ZM637.214 160.309C634.972 160.309 634.801 157.763 634.801 155.388C634.801 152.937 634.972 150.429 637.138 150.429C639.247 150.429 639.494 152.861 639.494 155.369C639.494 157.801 639.266 160.309 637.214 160.309ZM651.256 157.003V148.757H649.527L642.972 157.668V158.865H649.299V162H651.256V158.865H653.384V157.003H651.256ZM645.461 157.003L649.299 151.626V157.003H645.461Z" fill="#356D9C"/>
<path d="M637.271 186.527C640.634 186.527 641.584 183.126 641.584 179.744C641.584 176.324 640.615 172.885 637.138 172.885C633.319 172.885 632.787 176.78 632.787 179.725C632.787 182.632 633.357 186.527 637.271 186.527ZM637.214 184.646C634.972 184.646 634.801 182.1 634.801 179.725C634.801 177.274 634.972 174.766 637.138 174.766C639.247 174.766 639.494 177.198 639.494 179.706C639.494 182.138 639.266 184.646 637.214 184.646ZM648.426 177.312C647.685 177.312 646.868 177.483 646.089 178.053L646.659 174.975H652.245V173.094H645.044L643.809 180.029L645.671 180.504C646.184 179.725 647.001 179.136 648.16 179.136C649.927 179.136 650.782 180.352 650.782 181.758C650.782 183.221 649.851 184.646 648.084 184.646C646.45 184.646 645.5 183.506 645.329 182.252L643.391 182.575C643.733 184.76 645.595 186.508 648.084 186.508C650.858 186.508 652.853 184.285 652.853 181.758C652.853 179.345 651.029 177.312 648.426 177.312Z" fill="#356D9C"/>
<path d="M637.271 209.827C640.634 209.827 641.584 206.426 641.584 203.044C641.584 199.624 640.615 196.185 637.138 196.185C633.319 196.185 632.787 200.08 632.787 203.025C632.787 205.932 633.357 209.827 637.271 209.827ZM637.214 207.946C634.972 207.946 634.801 205.4 634.801 203.025C634.801 200.574 634.972 198.066 637.138 198.066C639.247 198.066 639.494 200.498 639.494 203.006C639.494 205.438 639.266 207.946 637.214 207.946ZM648.426 200.612C647.685 200.612 646.868 200.783 646.089 201.353L646.659 198.275H652.245V196.394H645.044L643.809 203.329L645.671 203.804C646.184 203.025 647.001 202.436 648.16 202.436C649.927 202.436 650.782 203.652 650.782 205.058C650.782 206.521 649.851 207.946 648.084 207.946C646.45 207.946 645.5 206.806 645.329 205.552L643.391 205.875C643.733 208.06 645.595 209.808 648.084 209.808C650.858 209.808 652.853 207.585 652.853 205.058C652.853 202.645 651.029 200.612 648.426 200.612Z" fill="#356D9C"/>
<path d="M718.188 202.588V204.412H721.228V204.659C721.228 206.863 719.727 207.946 717.542 207.946C714.654 207.946 713.115 206.027 713.115 202.949C713.115 199.928 714.635 198.066 717.409 198.066C719.328 198.066 720.639 198.959 721.266 200.65L723.128 199.928C722.197 197.496 720.164 196.128 717.428 196.128C713.419 196.128 711.082 199.054 711.082 202.987C711.082 207.11 713.666 209.884 717.409 209.884C719.233 209.884 720.715 209.238 721.475 208.079L721.741 209.637H723.223V202.588H718.188ZM726.43 209.637H735.189V207.756H728.463V203.785H734.638V201.904H728.463V198.275H735.189V196.394H726.43V209.637ZM746.155 196.394V206.084L740.265 196.394H738.156V209.637H740.189V199.89L746.06 209.637H748.188V196.394H746.155ZM754.623 209.637H756.675V198.275H760.969V196.394H750.348V198.275H754.623V209.637Z" fill="#356D9C"/>
</g>
</svg>
