<svg width="834" height="233" viewBox="0 0 834 233" fill="none" xmlns="http://www.w3.org/2000/svg">
<g opacity="0.4">
<path d="M39.0503 0V233" stroke="#6D9FCF"/>
<path d="M123.149 0V233" stroke="#6D9FCF"/>
<path d="M207.25 0V233" stroke="#6D9FCF"/>
<path d="M291.351 0V233" stroke="#6D9FCF"/>
<path d="M375.45 0V233" stroke="#6D9FCF"/>
<path d="M459.55 0V233" stroke="#6D9FCF"/>
<path d="M543.649 0V233" stroke="#6D9FCF"/>
<path d="M627.75 0V233" stroke="#6D9FCF"/>
<path d="M711.851 0V233" stroke="#6D9FCF"/>
<path d="M795.95 0V233" stroke="#6D9FCF"/>
<path d="M-3 23.3L838 23.3" stroke="#6D9FCF"/>
<path d="M-3 46.6L838 46.6" stroke="#6D9FCF"/>
<path d="M-3 69.8999L838 69.8999" stroke="#6D9FCF"/>
<path d="M-3 93.2L838 93.2" stroke="#6D9FCF"/>
<path d="M-3 116.5L838 116.5" stroke="#6D9FCF"/>
<path d="M-3 139.8L838 139.8" stroke="#6D9FCF"/>
<path d="M-3 163.1L838 163.1" stroke="#6D9FCF"/>
<path d="M-3 186.4L838 186.4" stroke="#6D9FCF"/>
<path d="M-3 209.7L838 209.7" stroke="#6D9FCF"/>
<path d="M558.415 162.19C560.999 162.19 563.222 160.765 563.222 158.143C563.222 156.547 562.367 155.274 560.828 154.856C561.911 154.343 562.519 153.336 562.519 152.12C562.519 149.878 560.562 148.567 558.396 148.567C556.097 148.567 554.216 149.992 554.216 152.424L556.135 152.557C556.154 151.208 557.066 150.448 558.434 150.448C559.612 150.448 560.562 151.056 560.562 152.348C560.562 153.583 559.669 154.267 557.807 154.267V155.844C559.327 155.844 561.265 155.977 561.265 157.953C561.265 159.568 559.973 160.309 558.453 160.309C556.743 160.309 555.508 159.416 555.508 157.782L553.57 157.896C553.57 160.746 555.774 162.19 558.415 162.19ZM569.626 162.19C572.989 162.19 573.939 158.789 573.939 155.407C573.939 151.987 572.97 148.548 569.493 148.548C565.674 148.548 565.142 152.443 565.142 155.388C565.142 158.295 565.712 162.19 569.626 162.19ZM569.569 160.309C567.327 160.309 567.156 157.763 567.156 155.388C567.156 152.937 567.327 150.429 569.493 150.429C571.602 150.429 571.849 152.861 571.849 155.369C571.849 157.801 571.621 160.309 569.569 160.309Z" fill="#356D9C"/>
<path d="M558.415 171.757V172.669C558.415 173.524 557.997 173.847 557.161 173.847H555.242V175.538H558.415V185H560.372V171.757H558.415Z" fill="#356D9C"/>
<path d="M557.218 204.157C559.859 202.504 562.557 199.768 562.557 196.652C562.557 194.163 560.866 192.586 558.453 192.586C555.584 192.586 554.026 194.828 554.026 197.317L555.945 197.469C555.983 195.911 556.648 194.467 558.434 194.467C559.878 194.467 560.6 195.398 560.6 196.766C560.6 199.996 556.477 202.751 553.893 204.347V206H563.127V204.157H557.218Z" fill="#356D9C"/>
<path d="M639.573 162.19C642.936 162.19 643.886 158.789 643.886 155.407C643.886 151.987 642.917 148.548 639.44 148.548C635.621 148.548 635.089 152.443 635.089 155.388C635.089 158.295 635.659 162.19 639.573 162.19ZM639.516 160.309C637.274 160.309 637.103 157.763 637.103 155.388C637.103 152.937 637.274 150.429 639.44 150.429C641.549 150.429 641.796 152.861 641.796 155.369C641.796 157.801 641.568 160.309 639.516 160.309ZM653.558 157.003V148.757H651.829L645.274 157.668V158.865H651.601V162H653.558V158.865H655.686V157.003H653.558ZM647.763 157.003L651.601 151.626V157.003H647.763Z" fill="#356D9C"/>
<path d="M639.573 186.527C642.936 186.527 643.886 183.126 643.886 179.744C643.886 176.324 642.917 172.885 639.44 172.885C635.621 172.885 635.089 176.78 635.089 179.725C635.089 182.632 635.659 186.527 639.573 186.527ZM639.516 184.646C637.274 184.646 637.103 182.1 637.103 179.725C637.103 177.274 637.274 174.766 639.44 174.766C641.549 174.766 641.796 177.198 641.796 179.706C641.796 182.138 641.568 184.646 639.516 184.646ZM650.728 177.312C649.987 177.312 649.17 177.483 648.391 178.053L648.961 174.975H654.547V173.094H647.346L646.111 180.029L647.973 180.504C648.486 179.725 649.303 179.136 650.462 179.136C652.229 179.136 653.084 180.352 653.084 181.758C653.084 183.221 652.153 184.646 650.386 184.646C648.752 184.646 647.802 183.506 647.631 182.252L645.693 182.575C646.035 184.76 647.897 186.508 650.386 186.508C653.16 186.508 655.155 184.285 655.155 181.758C655.155 179.345 653.331 177.312 650.728 177.312Z" fill="#356D9C"/>
<path d="M639.573 209.827C642.936 209.827 643.886 206.426 643.886 203.044C643.886 199.624 642.917 196.185 639.44 196.185C635.621 196.185 635.089 200.08 635.089 203.025C635.089 205.932 635.659 209.827 639.573 209.827ZM639.516 207.946C637.274 207.946 637.103 205.4 637.103 203.025C637.103 200.574 637.274 198.066 639.44 198.066C641.549 198.066 641.796 200.498 641.796 203.006C641.796 205.438 641.568 207.946 639.516 207.946ZM650.728 200.612C649.987 200.612 649.17 200.783 648.391 201.353L648.961 198.275H654.547V196.394H647.346L646.111 203.329L647.973 203.804C648.486 203.025 649.303 202.436 650.462 202.436C652.229 202.436 653.084 203.652 653.084 205.058C653.084 206.521 652.153 207.946 650.386 207.946C648.752 207.946 647.802 206.806 647.631 205.552L645.693 205.875C646.035 208.06 647.897 209.808 650.386 209.808C653.16 209.808 655.155 207.585 655.155 205.058C655.155 202.645 653.331 200.612 650.728 200.612Z" fill="#356D9C"/>
<path d="M721.149 202.588V204.412H724.189V204.659C724.189 206.863 722.688 207.946 720.503 207.946C717.615 207.946 716.076 206.027 716.076 202.949C716.076 199.928 717.596 198.066 720.37 198.066C722.289 198.066 723.6 198.959 724.227 200.65L726.089 199.928C725.158 197.496 723.125 196.128 720.389 196.128C716.38 196.128 714.043 199.054 714.043 202.987C714.043 207.11 716.627 209.884 720.37 209.884C722.194 209.884 723.676 209.238 724.436 208.079L724.702 209.637H726.184V202.588H721.149ZM729.391 209.637H738.15V207.756H731.424V203.785H737.599V201.904H731.424V198.275H738.15V196.394H729.391V209.637ZM749.116 196.394V206.084L743.226 196.394H741.117V209.637H743.15V199.89L749.021 209.637H751.149V196.394H749.116ZM757.584 209.637H759.636V198.275H763.93V196.394H753.309V198.275H757.584V209.637Z" fill="#356D9C"/>
</g>
</svg>
