<svg width="1049" height="430" viewBox="0 0 1049 430" fill="none" xmlns="http://www.w3.org/2000/svg">
<g opacity="0.4">
<path d="M52.4504 0V430" stroke="#6D9FCF"/>
<path d="M104.901 0V430" stroke="#6D9FCF"/>
<path d="M157.349 0V430" stroke="#6D9FCF"/>
<path d="M209.8 0V430" stroke="#6D9FCF"/>
<path d="M262.25 0V430" stroke="#6D9FCF"/>
<path d="M314.7 0V430" stroke="#6D9FCF"/>
<path d="M367.151 0V430" stroke="#6D9FCF"/>
<path d="M419.599 0V430" stroke="#6D9FCF"/>
<path d="M472.05 0V430" stroke="#6D9FCF"/>
<path d="M524.5 0V430" stroke="#6D9FCF"/>
<path d="M576.95 0V430" stroke="#6D9FCF"/>
<path d="M629.401 0V430" stroke="#6D9FCF"/>
<path d="M681.849 0V430" stroke="#6D9FCF"/>
<path d="M734.3 0V430" stroke="#6D9FCF"/>
<path d="M786.75 0V430" stroke="#6D9FCF"/>
<path d="M839.2 0V430" stroke="#6D9FCF"/>
<path d="M891.651 0V430" stroke="#6D9FCF"/>
<path d="M944.099 0V430" stroke="#6D9FCF"/>
<path d="M996.55 0V430" stroke="#6D9FCF"/>
<path d="M0 21.5L1049 21.5" stroke="#6D9FCF"/>
<path d="M0 43L1049 43" stroke="#6D9FCF"/>
<path d="M0 64.5L1049 64.5" stroke="#6D9FCF"/>
<path d="M0 86L1049 86" stroke="#6D9FCF"/>
<path d="M0 107.5L1049 107.5" stroke="#6D9FCF"/>
<path d="M0 129L1049 129" stroke="#6D9FCF"/>
<path d="M0 150.5L1049 150.5" stroke="#6D9FCF"/>
<path d="M0 172L1049 172" stroke="#6D9FCF"/>
<path d="M0 193.5L1049 193.5" stroke="#6D9FCF"/>
<path d="M0 215L1049 215" stroke="#6D9FCF"/>
<path d="M0 236.5L1049 236.5" stroke="#6D9FCF"/>
<path d="M0 258L1049 258" stroke="#6D9FCF"/>
<path d="M0 279.5L1049 279.5" stroke="#6D9FCF"/>
<path d="M0 301L1049 301" stroke="#6D9FCF"/>
<path d="M0 322.5L1049 322.5" stroke="#6D9FCF"/>
<path d="M0 344L1049 344" stroke="#6D9FCF"/>
<path d="M0 365.5L1049 365.5" stroke="#6D9FCF"/>
<path d="M0 387L1049 387" stroke="#6D9FCF"/>
<path d="M0 408.5L1049 408.5" stroke="#6D9FCF"/>
<path d="M750.415 190.19C752.999 190.19 755.222 188.765 755.222 186.143C755.222 184.547 754.367 183.274 752.828 182.856C753.911 182.343 754.519 181.336 754.519 180.12C754.519 177.878 752.562 176.567 750.396 176.567C748.097 176.567 746.216 177.992 746.216 180.424L748.135 180.557C748.154 179.208 749.066 178.448 750.434 178.448C751.612 178.448 752.562 179.056 752.562 180.348C752.562 181.583 751.669 182.267 749.807 182.267V183.844C751.327 183.844 753.265 183.977 753.265 185.953C753.265 187.568 751.973 188.309 750.453 188.309C748.743 188.309 747.508 187.416 747.508 185.782L745.57 185.896C745.57 188.746 747.774 190.19 750.415 190.19ZM761.626 190.19C764.989 190.19 765.939 186.789 765.939 183.407C765.939 179.987 764.97 176.548 761.493 176.548C757.674 176.548 757.142 180.443 757.142 183.388C757.142 186.295 757.712 190.19 761.626 190.19ZM761.569 188.309C759.327 188.309 759.156 185.763 759.156 183.388C759.156 180.937 759.327 178.429 761.493 178.429C763.602 178.429 763.849 180.861 763.849 183.369C763.849 185.801 763.621 188.309 761.569 188.309Z" fill="#356D9C"/>
<path d="M750.415 219.757V220.669C750.415 221.524 749.997 221.847 749.161 221.847H747.242V223.538H750.415V233H752.372V219.757H750.415Z" fill="#356D9C"/>
<path d="M749.218 274.157C751.859 272.504 754.557 269.768 754.557 266.652C754.557 264.163 752.866 262.586 750.453 262.586C747.584 262.586 746.026 264.828 746.026 267.317L747.945 267.469C747.983 265.911 748.648 264.467 750.434 264.467C751.878 264.467 752.6 265.398 752.6 266.766C752.6 269.996 748.477 272.751 745.893 274.347V276H755.127V274.157H749.218Z" fill="#356D9C"/>
<path d="M802.605 211.19C805.968 211.19 806.918 207.789 806.918 204.407C806.918 200.987 805.949 197.548 802.472 197.548C798.653 197.548 798.121 201.443 798.121 204.388C798.121 207.295 798.691 211.19 802.605 211.19ZM802.548 209.309C800.306 209.309 800.135 206.763 800.135 204.388C800.135 201.937 800.306 199.429 802.472 199.429C804.581 199.429 804.828 201.861 804.828 204.369C804.828 206.801 804.6 209.309 802.548 209.309ZM816.59 206.003V197.757H814.861L808.306 206.668V207.865H814.633V211H816.59V207.865H818.718V206.003H816.59ZM810.795 206.003L814.633 200.626V206.003H810.795Z" fill="#356D9C"/>
<path d="M802.605 254.19C805.968 254.19 806.918 250.789 806.918 247.407C806.918 243.987 805.949 240.548 802.472 240.548C798.653 240.548 798.121 244.443 798.121 247.388C798.121 250.295 798.691 254.19 802.605 254.19ZM802.548 252.309C800.306 252.309 800.135 249.763 800.135 247.388C800.135 244.937 800.306 242.429 802.472 242.429C804.581 242.429 804.828 244.861 804.828 247.369C804.828 249.801 804.6 252.309 802.548 252.309ZM813.76 244.975C813.019 244.975 812.202 245.146 811.423 245.716L811.993 242.638H817.579V240.757H810.378L809.143 247.692L811.005 248.167C811.518 247.388 812.335 246.799 813.494 246.799C815.261 246.799 816.116 248.015 816.116 249.421C816.116 250.884 815.185 252.309 813.418 252.309C811.784 252.309 810.834 251.169 810.663 249.915L808.725 250.238C809.067 252.423 810.929 254.171 813.418 254.171C816.192 254.171 818.187 251.948 818.187 249.421C818.187 247.008 816.363 244.975 813.76 244.975Z" fill="#356D9C"/>
<path d="M802.605 297.19C805.968 297.19 806.918 293.789 806.918 290.407C806.918 286.987 805.949 283.548 802.472 283.548C798.653 283.548 798.121 287.443 798.121 290.388C798.121 293.295 798.691 297.19 802.605 297.19ZM802.548 295.309C800.306 295.309 800.135 292.763 800.135 290.388C800.135 287.937 800.306 285.429 802.472 285.429C804.581 285.429 804.828 287.861 804.828 290.369C804.828 292.801 804.6 295.309 802.548 295.309ZM813.76 287.975C813.019 287.975 812.202 288.146 811.423 288.716L811.993 285.638H817.579V283.757H810.378L809.143 290.692L811.005 291.167C811.518 290.388 812.335 289.799 813.494 289.799C815.261 289.799 816.116 291.015 816.116 292.421C816.116 293.884 815.185 295.309 813.418 295.309C811.784 295.309 810.834 294.169 810.663 292.915L808.725 293.238C809.067 295.423 810.929 297.171 813.418 297.171C816.192 297.171 818.187 294.948 818.187 292.421C818.187 290.008 816.363 287.975 813.76 287.975Z" fill="#356D9C"/>
<path d="M900.018 289.951V291.775H903.058V292.022C903.058 294.226 901.557 295.309 899.372 295.309C896.484 295.309 894.945 293.39 894.945 290.312C894.945 287.291 896.465 285.429 899.239 285.429C901.158 285.429 902.469 286.322 903.096 288.013L904.958 287.291C904.027 284.859 901.994 283.491 899.258 283.491C895.249 283.491 892.912 286.417 892.912 290.35C892.912 294.473 895.496 297.247 899.239 297.247C901.063 297.247 902.545 296.601 903.305 295.442L903.571 297H905.053V289.951H900.018ZM908.26 297H917.019V295.119H910.293V291.148H916.468V289.267H910.293V285.638H917.019V283.757H908.26V297ZM927.986 283.757V293.447L922.096 283.757H919.987V297H922.02V287.253L927.891 297H930.019V283.757H927.986ZM936.453 297H938.505V285.638H942.799V283.757H932.178V285.638H936.453V297Z" fill="#356D9C"/>
</g>
</svg>
