<svg width="700" height="304" viewBox="0 0 700 304" fill="none" xmlns="http://www.w3.org/2000/svg">
<g opacity="0.4" clip-path="url(#clip0)">
<path d="M0 288.8L700 288.8" stroke="#6D9FCF"/>
<path d="M0 273.6L700 273.6" stroke="#6D9FCF"/>
<path d="M0 258.4L700 258.4" stroke="#6D9FCF"/>
<path d="M0 243.2L700 243.2" stroke="#6D9FCF"/>
<path d="M0 228L700 228" stroke="#6D9FCF"/>
<path d="M0 212.8L700 212.8" stroke="#6D9FCF"/>
<path d="M0 197.6L700 197.6" stroke="#6D9FCF"/>
<path d="M0 182.4L700 182.4" stroke="#6D9FCF"/>
<path d="M0 167.2L700 167.2" stroke="#6D9FCF"/>
<path d="M0 152L700 152" stroke="#6D9FCF"/>
<path d="M0 136.8L700 136.8" stroke="#6D9FCF"/>
<path d="M0 121.6L700 121.6" stroke="#6D9FCF"/>
<path d="M0 106.4L700 106.4" stroke="#6D9FCF"/>
<path d="M0 91.2001L700 91.2001" stroke="#6D9FCF"/>
<path d="M0 76L700 76" stroke="#6D9FCF"/>
<path d="M0 60.7999L700 60.7999" stroke="#6D9FCF"/>
<path d="M0 45.5998L700 45.5998" stroke="#6D9FCF"/>
<path d="M0 30.4002L700 30.4002" stroke="#6D9FCF"/>
<path d="M0 15.2001L700 15.2001" stroke="#6D9FCF"/>
<path d="M70.0001 304L70.0001 3.24249e-05" stroke="#6D9FCF"/>
<path d="M140 304L140 3.24249e-05" stroke="#6D9FCF"/>
<path d="M210 304L210 3.24249e-05" stroke="#6D9FCF"/>
<path d="M280 304L280 3.24249e-05" stroke="#6D9FCF"/>
<path d="M350 304L350 3.24249e-05" stroke="#6D9FCF"/>
<path d="M420 304L420 3.24249e-05" stroke="#6D9FCF"/>
<path d="M490 304L490 3.24249e-05" stroke="#6D9FCF"/>
<path d="M560 304L560 3.24249e-05" stroke="#6D9FCF"/>
<path d="M630 304L630 3.24249e-05" stroke="#6D9FCF"/>
</g>
<defs>
<clipPath id="clip0">
<rect width="304" height="700" fill="white" transform="translate(0 304) rotate(-90)"/>
</clipPath>
</defs>
</svg>
