<svg width="239" height="115" viewBox="0 0 239 115" fill="none" xmlns="http://www.w3.org/2000/svg">
<path d="M13.5871 0L9.75 11.2493L5.98864 0H0.333984V17.5802H4.2973V5.75078L7.88195 15.9912H11.6938L15.2784 5.70033V17.5802H19.2418V0H13.5871Z" fill="#6D9FCF"/>
<path d="M22.8169 17.5802H26.7802V0H22.8169V17.5802Z" fill="#6D9FCF"/>
<path d="M41.0388 0V10.7197L34.3996 0H30.3606V17.5802H34.3239V6.81013L40.9378 17.5802H45.0021V0H41.0388Z" fill="#6D9FCF"/>
<path d="M48.5787 17.5802H52.542V0H48.5787V17.5802Z" fill="#6D9FCF"/>
<path d="M36.9185 22.373L26.2297 53.7362L15.7519 22.373H0V71.3868H11.0404V38.4062L21.026 66.9565H31.6444L41.63 38.2656V71.3868H52.6704V22.373H36.9185Z" fill="#6D9FCF"/>
<path d="M93.3598 71.3868H105.385L85.062 22.373H76.9751L56.582 71.3868H68.6069L71.7713 63.0889H90.1954L93.3598 71.3868ZM75.639 52.9627L81.0537 38.8281L86.3981 52.9627H75.639Z" fill="#6D9FCF"/>
<path d="M154.192 71.3868L135.276 41.2894L154.051 22.373H139.565L120.367 42.5552V22.373H109.327V71.3868H120.367V56.4084L127.821 48.884L141.393 71.3868H154.192Z" fill="#6D9FCF"/>
<path d="M158.497 71.3868H191.407V61.2605H169.537V51.1343H190.352V40.9378H169.537V32.4993H191.407V22.373H158.497V71.3868Z" fill="#6D9FCF"/>
<path d="M239 71.3868L225.85 50.5717C231.335 48.3918 234.359 43.8209 234.359 36.8592C234.359 28.1394 229.718 22.373 217.341 22.373H200.113V71.3868H211.083V51.9078H214.88L226.202 71.3868H239ZM211.083 41.7816V32.4993H216.216C219.662 32.4993 223.318 32.4993 223.318 36.9998C223.318 41.5707 219.732 41.7816 216.216 41.7816H211.083Z" fill="#6D9FCF"/>
<path d="M42.4209 114.005H51.149V98.1563H68.3273V90.1767H51.149V83.573H70.6066V75.6484H42.4209V114.005Z" fill="#6D9FCF"/>
<path d="M96.6307 114.005H106.137L90.0707 75.6484H83.6775L67.5555 114.005H77.0619L79.5636 107.512H94.129L96.6307 114.005ZM82.6212 99.5871L86.9019 88.5258L91.127 99.5871H82.6212Z" fill="#6D9FCF"/>
<path d="M110.255 114.005H118.984V75.6484H110.255V114.005Z" fill="#6D9FCF"/>
<path d="M156.512 114.005L146.116 97.716C150.453 96.0101 152.843 92.433 152.843 86.9849C152.843 80.161 149.174 75.6484 139.39 75.6484H125.769V114.005H134.442V98.7616H137.444L146.394 114.005H156.512ZM134.442 90.8371V83.573H138.5C141.224 83.573 144.115 83.573 144.115 87.095C144.115 90.672 141.28 90.8371 138.5 90.8371H134.442Z" fill="#6D9FCF"/>
<path d="M159.709 114.005H185.726V106.081H168.437V98.1563H184.893V90.1767H168.437V83.573H185.726V75.6484H159.709V114.005Z" fill="#6D9FCF"/>
<path d="M200.085 102.117L203.315 103.022L205.543 105.53L206.062 108.845L204.706 111.914L201.906 113.762L198.551 113.804L195.707 112.025L194.275 108.991L194.712 105.664L196.877 103.102L200.085 102.117Z" fill="#6D9FCF"/>
</svg>
