<svg width="387" height="185" viewBox="0 0 387 185" fill="none" xmlns="http://www.w3.org/2000/svg">
<path d="M22.0016 0L15.7884 18.2154L9.69779 0H0.541504V28.4667H6.95908V9.31193L12.7635 25.8937H18.9358L24.7403 9.23025V28.4667H31.1578V0H22.0016Z" fill="#6D9FCF"/>
<path d="M36.9469 28.4667H43.3645V0H36.9469V28.4667Z" fill="#6D9FCF"/>
<path d="M66.4526 0V17.3578L55.7021 0H49.1619V28.4667H55.5795V11.0273L66.2891 28.4667H72.8702V0H66.4526Z" fill="#6D9FCF"/>
<path d="M78.6615 28.4667H85.0791V0H78.6615V28.4667Z" fill="#6D9FCF"/>
<path d="M59.7802 36.2268L42.4724 87.0115L25.5062 36.2268H0V115.592H17.8771V62.1885L34.0462 108.418H51.2401L67.4092 61.9607V115.592H85.2864V36.2268H59.7802Z" fill="#6D9FCF"/>
<path d="M151.173 115.592H170.644L137.736 36.2268H124.642L91.6202 115.592H111.091L116.215 102.156H146.049L151.173 115.592ZM122.478 85.7589L131.246 62.8717L139.9 85.7589H122.478Z" fill="#6D9FCF"/>
<path d="M249.675 115.592L219.044 66.857L249.447 36.2268H225.99L194.905 68.9066V36.2268H177.028V115.592H194.905V91.3384L206.975 79.1547L228.951 115.592H249.675Z" fill="#6D9FCF"/>
<path d="M256.645 115.592H309.935V99.1952H274.523V82.7984H308.227V66.2877H274.523V52.6236H309.935V36.2268H256.645V115.592Z" fill="#6D9FCF"/>
<path d="M387 115.592L365.707 81.8875C374.589 78.3576 379.485 70.9562 379.485 59.6834C379.485 45.5639 371.97 36.2268 351.929 36.2268H324.032V115.592H341.795V84.0509H347.944L366.276 115.592H387ZM341.795 67.6541V52.6236H350.107C355.687 52.6236 361.608 52.6236 361.608 59.9111C361.608 67.3125 355.8 67.6541 350.107 67.6541H341.795Z" fill="#6D9FCF"/>
<path d="M68.6893 184.602H82.8223V158.939H110.638V146.018H82.8223V135.325H114.329V122.493H68.6893V184.602Z" fill="#6D9FCF"/>
<path d="M156.468 184.602H171.862L145.846 122.493H135.494L109.388 184.602H124.782L128.833 174.087H152.418L156.468 184.602ZM133.784 161.256L140.715 143.345L147.556 161.256H133.784Z" fill="#6D9FCF"/>
<path d="M178.53 184.602H192.663V122.493H178.53V184.602Z" fill="#6D9FCF"/>
<path d="M253.432 184.602L236.598 158.226C243.62 155.463 247.49 149.671 247.49 140.849C247.49 129.8 241.549 122.493 225.706 122.493H203.651V184.602H217.694V159.919H222.555L237.048 184.602H253.432ZM217.694 147.087V135.325H224.265C228.676 135.325 233.357 135.325 233.357 141.028C233.357 146.82 228.766 147.087 224.265 147.087H217.694Z" fill="#6D9FCF"/>
<path d="M258.607 184.602H300.736V171.77H272.74V158.939H299.386V146.018H272.74V135.325H300.736V122.493H258.607V184.602Z" fill="#6D9FCF"/>
<path d="M323.987 165.353L329.218 166.819L332.825 170.88L333.665 176.247L331.469 181.216L326.936 184.209L321.504 184.276L316.898 181.396L314.58 176.483L315.287 171.097L318.794 166.947L323.987 165.353Z" fill="#6D9FCF"/>
</svg>
