<svg width="688" height="330" viewBox="0 0 688 330" fill="none" xmlns="http://www.w3.org/2000/svg">
<path d="M39.1139 0.61084L28.0682 32.9939L17.2405 0.61084H0.962646V51.2184H12.3717V17.1654L22.6907 46.6441H33.6637L43.9827 17.0202V51.2184H55.3917V0.61084H39.1139Z" fill="#6D9FCF"/>
<path d="M65.6834 51.2184H77.0925V0.61084H65.6834V51.2184Z" fill="#6D9FCF"/>
<path d="M118.138 0.61084V31.4691L99.026 0.61084H87.399V51.2184H98.808V20.2149L117.847 51.2184H129.547V0.61084H118.138Z" fill="#6D9FCF"/>
<path d="M139.843 51.2184H151.252V0.61084H139.843V51.2184Z" fill="#6D9FCF"/>
<path d="M106.276 65.0142L75.5065 155.298L45.3444 65.0142H0V206.108H31.7815V111.168L60.5266 193.355H91.0936L119.839 110.763V206.108H151.62V65.0142H106.276Z" fill="#6D9FCF"/>
<path d="M268.751 206.108H303.367L244.865 65.0142H221.585L162.88 206.108H197.496L206.605 182.221H259.642L268.751 206.108ZM217.739 153.071L233.326 112.383L248.711 153.071H217.739Z" fill="#6D9FCF"/>
<path d="M443.866 206.108L389.412 119.468L443.461 65.0142H401.761L346.497 123.112V65.0142H314.716V206.108H346.497V162.99L367.955 141.33L407.024 206.108H443.866Z" fill="#6D9FCF"/>
<path d="M456.259 206.108H550.996V176.958H488.04V147.808H547.959V118.456H488.04V94.1641H550.996V65.0142H456.259V206.108Z" fill="#6D9FCF"/>
<path d="M688 206.108L650.146 146.189C665.935 139.913 674.64 126.755 674.64 106.715C674.64 81.6134 661.279 65.0142 625.652 65.0142H576.056V206.108H607.635V150.035H618.566L651.158 206.108H688ZM607.635 120.885V94.1641H622.413C632.332 94.1641 642.858 94.1641 642.858 107.12C642.858 120.278 632.534 120.885 622.413 120.885H607.635Z" fill="#6D9FCF"/>
<path d="M122.114 328.793H147.24V283.169H196.69V260.198H147.24V241.188H203.251V218.376H122.114V328.793Z" fill="#6D9FCF"/>
<path d="M278.166 328.793H305.532L259.282 218.376H240.878L194.468 328.793H221.834L229.035 310.1H270.964L278.166 328.793ZM237.837 287.288L250.16 255.446L262.323 287.288H237.837Z" fill="#6D9FCF"/>
<path d="M317.387 328.793H342.512V218.376H317.387V328.793Z" fill="#6D9FCF"/>
<path d="M450.545 328.793L420.619 281.902C433.101 276.991 439.983 266.694 439.983 251.01C439.983 231.367 429.42 218.376 401.254 218.376H362.046V328.793H387.011V284.911H395.653L421.419 328.793H450.545ZM387.011 262.099V241.188H398.694C406.536 241.188 414.857 241.188 414.857 251.327C414.857 261.624 406.696 262.099 398.694 262.099H387.011Z" fill="#6D9FCF"/>
<path d="M459.746 328.793H534.642V305.981H484.872V283.169H532.242V260.198H484.872V241.188H534.642V218.376H459.746V328.793Z" fill="#6D9FCF"/>
<path d="M575.976 294.57L585.276 297.177L591.69 304.397L593.182 313.938L589.279 322.772L581.22 328.094L571.563 328.213L563.374 323.092L559.254 314.358L560.51 304.782L566.744 297.406L575.976 294.57Z" fill="#6D9FCF"/>
</svg>
