<svg width="635" height="303" viewBox="0 0 635 303" fill="none" xmlns="http://www.w3.org/2000/svg">
<path d="M36.0833 0L25.8934 29.874L15.9047 0H0.888031V46.6864H11.4131V15.2719L20.9325 42.4666H31.0554L40.5748 15.1379V46.6864H51.0999V0H36.0833Z" fill="#6D9FCF"/>
<path d="M60.5942 46.6864H71.1193V0H60.5942V46.6864Z" fill="#6D9FCF"/>
<path d="M108.985 0V28.4673L91.3534 0H80.6272V46.6864H91.1523V18.0851L108.716 46.6864H119.51V0H108.985Z" fill="#6D9FCF"/>
<path d="M129.008 46.6864H139.533V0H129.008V46.6864Z" fill="#6D9FCF"/>
<path d="M98.0415 59.4132L69.6562 142.702L41.831 59.4132H0V189.575H29.3191V101.991L55.837 177.81H84.0356L110.553 101.618V189.575H139.873V59.4132H98.0415Z" fill="#6D9FCF"/>
<path d="M247.928 189.575H279.862L225.892 59.4132H204.417L150.26 189.575H182.194L190.597 167.539H239.525L247.928 189.575ZM200.868 140.648L215.248 103.112L229.44 140.648H200.868Z" fill="#6D9FCF"/>
<path d="M409.475 189.575L359.24 109.648L409.102 59.4132H370.632L319.65 113.009V59.4132H290.331V189.575H319.65V149.798L339.445 129.816L375.487 189.575H409.475Z" fill="#6D9FCF"/>
<path d="M420.907 189.575H508.304V162.684H450.226V135.792H505.503V108.714H450.226V86.3046H508.304V59.4132H420.907V189.575Z" fill="#6D9FCF"/>
<path d="M634.693 189.575L599.772 134.298C614.338 128.509 622.368 116.371 622.368 97.8828C622.368 74.7264 610.043 59.4132 577.176 59.4132H531.423V189.575H560.555V137.846H570.639L600.706 189.575H634.693ZM560.555 110.955V86.3046H574.188C583.338 86.3046 593.049 86.3046 593.049 98.2563C593.049 110.395 583.525 110.955 574.188 110.955H560.555Z" fill="#6D9FCF"/>
<path d="M112.653 302.754H135.831V260.665H181.45V239.474H135.831V221.937H187.503V200.893H112.653V302.754Z" fill="#6D9FCF"/>
<path d="M256.613 302.754H281.859L239.193 200.893H222.215L179.401 302.754H204.646L211.29 285.509H249.97L256.613 302.754ZM219.41 264.465L230.777 235.09L241.998 264.465H219.41Z" fill="#6D9FCF"/>
<path d="M292.796 302.754H315.974V200.893H292.796V302.754Z" fill="#6D9FCF"/>
<path d="M415.636 302.754L388.029 259.496C399.544 254.966 405.893 245.466 405.893 230.998C405.893 212.877 396.149 200.893 370.165 200.893H333.995V302.754H357.026V262.273H364.998L388.767 302.754H415.636ZM357.026 241.228V221.937H367.803C375.037 221.937 382.714 221.937 382.714 231.29C382.714 240.79 375.185 241.228 367.803 241.228H357.026Z" fill="#6D9FCF"/>
<path d="M424.125 302.754H493.218V281.71H447.304V260.665H491.003V239.474H447.304V221.937H493.218V200.893H424.125V302.754Z" fill="#6D9FCF"/>
<path d="M531.349 271.183L539.928 273.588L545.845 280.248L547.222 289.051L543.621 297.2L536.186 302.109L527.278 302.219L519.724 297.495L515.923 289.437L517.082 280.604L522.832 273.799L531.349 271.183Z" fill="#6D9FCF"/>
</svg>
