<svg width="558" height="556" viewBox="0 0 558 556" fill="none" xmlns="http://www.w3.org/2000/svg">
<path d="M386.56 111.144C388.844 111.7 390.859 113.043 392.252 114.937L471.241 222.379C472.634 224.273 473.314 226.598 473.164 228.944L464.61 362.023C464.459 364.369 463.487 366.587 461.863 368.287L369.769 464.734C368.146 466.434 365.975 467.508 363.638 467.767L231.096 482.452C228.759 482.711 226.406 482.139 224.449 480.835L113.476 406.888C111.52 405.584 110.085 403.633 109.425 401.377L71.9464 273.398C71.2857 271.142 71.441 268.725 72.3852 266.572L125.938 144.444C126.883 142.291 128.555 140.539 130.662 139.497L250.189 80.3646C252.296 79.3221 254.703 79.0553 256.988 79.6113L386.56 111.144Z" fill="#6D9FCF"/>
</svg>
